# xmcd
#
# Track frame offsets: 
#        150
#        10182
#        18982
#        29697
#        37987
#        50570
#        59537
#        68832
#        81325
#        91345
#        102395
#        112705
#
# Disc length: 1646 seconds
#
# Revision: 1
# Processed by: cddbd v1.5.2PL0 Copyright (c) Steve Scherf et al.
# Submitted via: ExactAudioCopy v1.1
#
DISCID=95066c0c
DTITLE=Buck Owens and His Buckaroos - Before You Go - No One But You (196
DTITLE=5) 
DYEAR=1991
DGENRE=Country
TTITLE0=Before You Go
TTITLE1=Gonna Have Love
TTITLE2=Getting Used To Loving You
TTITLE3=Steel Guitar Rag
TTITLE4=No Fool Like An Old Fool
TTITLE5=I Betcha Didn't Know
TTITLE6=(I Want) No One But You
TTITLE7=If You Want A Love
TTITLE8=Number One Heel
TTITLE9=Raz Ma-Taz Polka
TTITLE10=There's Gonna Come A Day
TTITLE11=Charlie Brown
EXTD=
EXTT0=
EXTT1=
EXTT2=
EXTT3=
EXTT4=
EXTT5=
EXTT6=
EXTT7=
EXTT8=
EXTT9=
EXTT10=
EXTT11=
PLAYORDER=
